# xmcd
#
# Track frame offsets:
#	150
#	18913
#	29895
#	52929
#	73129
#	95654
#	117429
#	137267
#	154273
#	167307
#	183611
#	203776
#	219178
#
# Disc length: 3065 seconds
#
# Revision: 0
# Processed by: cddbd v1.5.1PL0 Copyright (c) Steve Scherf et al.
# Submitted via: dBpowerAMP V4.0
#
DISCID=b20bf70d
DTITLE=Josep Soto - Parabòlic
DYEAR=2001
DGENRE=Blues
TTITLE0=Tarariro
TTITLE1=El Cant Dels Ocells (Intro)
TTITLE2=El Cant Dels Ocells
TTITLE3=Hola
TTITLE4=Tumpuky
TTITLE5=Tornassol
TTITLE6=Parabòlic
TTITLE7=De 8 en 8
TTITLE8=No Trepitjeu les Formigues
TTITLE9=Una Samba pels Amics
TTITLE10=Tras-vals Nocturn
TTITLE11=Pipes Egarenques
TTITLE12=Marta
EXTD=
EXTT0=
EXTT1=
EXTT2=
EXTT3=
EXTT4=
EXTT5=
EXTT6=
EXTT7=
EXTT8=
EXTT9=
EXTT10=
EXTT11=
EXTT12=
PLAYORDER=
